PathFileType	4	(X/Y/Z)	C:/Users/beibeiliu/ov580/test_trc/User2\sequence.7_training_dense_right.trc
DataRate	CameraRate	NumFrames	NumMarkers	Units	OrigDataRate	OrigDataStartFrame	OrigNumFrames
120	120	8	19	mm	120	1	79
Frame#	Time	ThumbCMC			ThumbMCP			ThumbIP			ThumbTip			IndexMCP			IndexPIP			IndexTip			MiddleMCP			MiddlePIP			MiddleTip			RingMCP			RingPIP			RingTip			PinkyMCP			PinkyPIP			PinkyTip			BackHand1			BackHand2			BackHand3	
		X0	Y0	Z0	X1	Y1	Z1	X2	Y2	Z2	X3	Y3	Z3	X4	Y4	Z4	X5	Y5	Z5	X6	Y6	Z6	X7	Y7	Z7	X8	Y8	Z8	X9	Y9	Z9	X10	Y10	Z10	X11	Y11	Z11	X12	Y12	Z12	X13	Y13	Z13	X14	Y14	Z14	X15	Y15	Z15	X16	Y16	Z16	X17	Y17	Z17	X18	Y18	Z18	
0	0	81.2179	0.481114	2.48297	50.8928	-7.6309	-13.0716	27.2516	-15.1233	-37.4714	11.7482	-22.7873	-54.0534	79.1959	23.3416	-79.395	66.9753	20.7362	-108.391	55.9155	18.8505	-129.971	111.021	25.8193	-91.0867	103.108	25.1921	-121.741	102.589	22.9953	-154.264	135.423	14.8804	-90.5065	136.593	14.1202	-117.587	139.206	15.3478	-146.289	158.186	-0.327863	-77.7423	167.335	-4.26007	-101.643	176.485	-3.97289	-121.522	140.28	19.1256	-33.0682	144.9	22.4096	1.36274	108.558	25.6691	-10.4745	
1	0.00833333	79.8549	1.4591	-1.02508	56.941	-6.5608	-13.2996	30.3801	-10.6121	-39.8878	12.2486	-18.1128	-53.8227	81.6086	25.4635	-78.1896	67.9171	23.4579	-107.469	62.4773	13.307	-135.247	109.745	28.712	-87.8003	103.897	26.6361	-125.284	102.844	17.6929	-156.618	134.475	18.7088	-91.2512	141.585	14.7737	-115.16	135.593	9.60981	-147.829	158.348	1.32591	-76.6732	167.208	-4.39593	-105.33	166.72	-12.4458	-130.653	141.714	18.9858	-31.3575	146.85	19.9529	2.49312	109.525	27.0952	-11.2898	
2	0.0166667	83.4314	5.06712	3.83881	60.8637	1.64056	-17.9418	34.3295	1.63086	-42.1312	20.7133	-2.23217	-61.154	89.0513	31.094	-79.0457	76.2361	27.0503	-106.572	73.3532	5.51366	-131.324	115.932	33.7763	-92.0701	109.748	26.7332	-125.809	104.905	0.864809	-152.636	141.65	20.2317	-89.431	139.786	14.6601	-116.397	131.054	-6.17382	-143.12	160.922	2.39094	-78.5007	164.327	-9.7635	-105.837	154.088	-25.9429	-125.718	147.297	19.3908	-31.9926	154.344	19.5415	0.00403875	117.36	29.2361	-9.35174	
3	0.025	88.2523	13.7645	-0.272269	66.5162	12.8998	-18.4556	44.8036	17.837	-48.6705	28.7856	16.4845	-67.6561	98.7272	34.5429	-79.7295	87.8976	20.0422	-112.202	84.5039	-11.885	-118.794	128.402	30.3572	-92.8066	117.329	12.2108	-125.978	104.789	-22.684	-128.436	145.084	16.7486	-93.1465	138.315	-1.12115	-119.759	118.566	-29.1963	-120.874	161.977	-3.62559	-79.1688	155.668	-20.6353	-104.472	130.657	-45.2391	-106.255	152.307	20.596	-32.0385	159.286	15.7688	2.21802	121.677	33.0073	-13.1673	
4	0.0333333	94.7628	19.4903	-5.95513	76.7247	19.7202	-26.0947	56.6793	27.847	-54.9252	42.374	28.9205	-76.522	110.392	26.9318	-89.9118	96.0581	7.75262	-112.033	88.5756	-23.8755	-95.5148	129.456	18.6909	-94.9134	112.113	-11.5274	-117.34	98.0496	-36.908	-94.9869	145.321	-0.554733	-92.8164	126.444	-25.2423	-110.273	109.171	-44.1949	-84.5172	160.659	-19.6855	-80.2519	136.815	-42.6166	-96.4023	118.192	-50.7932	-70.914	160.079	12.4965	-32.9153	168.533	10.282	-1.02769	135.751	28.669	-14.5206	
5	0.0416667	104.25	22.7615	-14.6706	88.7767	24.886	-35.3698	71.3426	33.6729	-61.2751	57.4293	38.6088	-82.6053	113.123	14.8754	-95.1055	97.0595	-13.3705	-103.631	84.5003	-21.2133	-69.2318	131.742	-3.08062	-99.0264	107.141	-32.2764	-103.362	96.8162	-36.6937	-66.1779	137.174	-23.2315	-96.0126	116.48	-46.7301	-93.352	107.434	-40.908	-59.3404	150.069	-41.5557	-83.0192	121.914	-54.7774	-78.5695	116.656	-47.388	-42.4798	168.786	-2.50798	-42.2512	170.795	0.877008	-8.83735	145.164	23.7034	-25.8729	
6	0.05	116.064	26.7965	-21.8756	98.9294	37.7269	-41.8469	83.4139	48.8245	-72.5747	68.9993	53.9642	-89.4103	113.907	2.43023	-98.0224	86.305	-16.3422	-92.083	92.4841	-15.0069	-56.613	123.92	-17.3044	-98.8392	94.1338	-36.336	-86.5059	97.6299	-25.412	-48.103	127.194	-41.8575	-89.7795	102.182	-51.9422	-73.3067	108.513	-35.1204	-42.2992	136.3	-51.9942	-75.3766	107.799	-58.3351	-55.8962	119.496	-39.1188	-29.1019	169.135	-12.6982	-45.142	172.363	-7.11147	-11.906	152.523	18.5276	-33.6873	
7	0.0583333	124.895	33.3947	-23.5146	110.821	45.3744	-47.7473	96.6874	56.5801	-77.313	83.6798	65.5645	-96.4445	109.1	-0.924842	-98.8017	82.5175	-14.3867	-81.9778	94.6057	-2.28888	-49.7606	113.74	-25.9116	-94.1641	84.3034	-31.0046	-73.7584	102.106	-14.7796	-38.7172	112.304	-46.5818	-80.7556	90.6583	-45.907	-58.2511	106.844	-23.9195	-36.0968	122.162	-56.4417	-68.2218	96.7362	-50.5883	-46.8718	116.388	-33.7015	-21.8428	165.269	-22.9715	-51.8194	173.107	-14.2708	-13.3449	157.574	15.4826	-37.066	
